<svg width="189" height="52" viewBox="0 0 189 52" fill="none" xmlns="http://www.w3.org/2000/svg">
<path d="M140.375 9H135.455V25.12C135.455 27.7067 134.829 29.6533 133.575 30.96C132.322 32.2667 130.602 32.92 128.415 32.92C126.202 32.92 124.469 32.24 123.215 30.88C121.962 29.52 121.335 27.5333 121.335 24.92V9H116.415V25.12C116.415 27.1467 116.695 28.9333 117.255 30.48C117.815 32 118.615 33.28 119.655 34.32C120.695 35.36 121.949 36.1467 123.415 36.68C124.882 37.1867 126.522 37.44 128.335 37.44C130.175 37.44 131.829 37.1867 133.295 36.68C134.789 36.1467 136.055 35.36 137.095 34.32C138.135 33.2533 138.935 31.9333 139.495 30.36C140.082 28.7867 140.375 26.96 140.375 24.88V9ZM170.889 37L163.329 26.4C164.316 26.1333 165.209 25.76 166.009 25.28C166.836 24.7733 167.542 24.1733 168.129 23.48C168.716 22.76 169.169 21.9467 169.489 21.04C169.836 20.1067 170.009 19.0533 170.009 17.88C170.009 16.52 169.769 15.2933 169.289 14.2C168.809 13.08 168.116 12.1467 167.209 11.4C166.329 10.6267 165.236 10.04 163.929 9.64C162.649 9.21333 161.209 9 159.609 9H147.129V37H152.049V27.24H158.209L165.089 37H170.889ZM165.009 18.16C165.009 19.6 164.489 20.7467 163.449 21.6C162.409 22.4533 161.009 22.88 159.249 22.88H152.049V13.48H159.209C161.049 13.48 162.476 13.88 163.489 14.68C164.502 15.4533 165.009 16.6133 165.009 18.16Z" fill="black"/>
<path d="M3.88 9V37H8.8V9H3.88ZM37.1353 9H16.2953V37H21.2153V25.6H35.3353V21.12H21.2153V13.48H37.1353V9ZM66.3775 13.56H75.2575V9H52.5375V13.56H61.4175V37H66.3775V13.56Z" fill="black"/>
<path d="M93.8956 25.9429C94.5566 25.9429 95.2111 25.805 95.8218 25.5372C96.4325 25.2693 96.9874 24.8767 97.4549 24.3818C97.9223 23.8869 98.293 23.2993 98.546 22.6526C98.799 22.0059 98.9292 21.3129 98.9292 20.6129C98.9292 19.913 98.799 19.2199 98.546 18.5732C98.293 17.9265 97.9223 17.339 97.4549 16.844C96.9874 16.3491 96.4325 15.9565 95.8218 15.6886C95.2111 15.4208 94.5566 15.2829 93.8956 15.2829C92.5606 15.2829 91.2803 15.8445 90.3363 16.844C89.3923 17.8436 88.862 19.1993 88.862 20.6129C88.862 22.0265 89.3923 23.3822 90.3363 24.3818C91.2803 25.3814 92.5606 25.9429 93.8956 25.9429V25.9429Z" stroke="#EF2F2F" stroke-width="1.5"/>
<path d="M80.3759 17.5038C83.5541 2.70958 104.253 2.72667 107.415 17.5208C109.271 26.1992 104.172 33.545 99.7035 38.0892C98.142 39.684 96.057 40.5751 93.8875 40.5751C91.718 40.5751 89.633 39.684 88.0715 38.0892C83.6187 33.545 78.5206 26.1821 80.3759 17.5038V17.5038Z" stroke="black" stroke-width="1.5"/>
</svg>
